# xmcd
#
# Track frame offsets:
#       150
#       27230
#       50665
#       91562
#       110920
#       131547
#       154650
#       179822
#       203930
#       226155
#       244907
#       270775
#       308005
#
# Disc length: 4557 seconds
#
# Revision: 1
# Processed by: cddbd v1.4PL0 Copyright (c) Steve Scherf et al.
# Submitted via: MusiCat 1.1
#
DISCID=a911cb0d
DTITLE=Sonny Landreth - Live
DYEAR=1995
DGENRE=
TTITLE0=Scatt Landrom
TTITLE1=South of I-10
TTITLE2=Unknown
TTITLE3=Native Stepson
TTITLE4=Shootin for the moon
TTITLE5=The Parish Line
TTITLE6=Yokanoma
TTITLE7=Burn Attack
TTITLE8=My Mama Tore Me
TTITLE9=Creole . . . 
TTITLE10=Bad Weather
TTITLE11=Back to Bayou Tech
TTITLE12=Congo Square
EXTD=1995\n\n\nsubmitted by Stamppot
EXTT0=
EXTT1=
EXTT2=
EXTT3=
EXTT4=
EXTT5=
EXTT6=
EXTT7=
EXTT8=
EXTT9=
EXTT10=
EXTT11=
EXTT12=
PLAYORDER=
